# xmcd
#
# Track frame offsets:
#	150
#	22725
#	45652
#	69782
#	89325
#	107200
#	131010
#	156012
#	180165
#	207985
#	229492
#	248595
#
# Disc length: 3615 seconds
#
# Revision: 0
# Processed by: cddbd v1.4PL0 Copyright (c) Steve Scherf et al.
# Submitted via: dBpowerAMP V4.0
#
DISCID=910e1d0c
DTITLE=Vu Khanh - Toi ban duong to
DYEAR=1900
DGENRE=
TTITLE0=Gap nhau lam ngo
TTITLE1=Rung la thay chua
TTITLE2=Vet thuong cuoi cung
TTITLE3=Tinh ho
TTITLE4=Niem thuong nho
TTITLE5=Xin dung bo anh
TTITLE6=Toi ban duong to
TTITLE7=Le da
TTITLE8=Tu giong hat
TTITLE9=Neu xa nhau
TTITLE10=Ngu di em
TTITLE11=Bai khong ten so 5
EXTD=
EXTT0=
EXTT1=
EXTT2=
EXTT3=
EXTT4=
EXTT5=
EXTT6=
EXTT7=
EXTT8=
EXTT9=
EXTT10=
EXTT11=
PLAYORDER=
